<?xml version="1.0" standalone="no"?>
<!DOCTYPE svg PUBLIC "-//W3C//DTD SVG 20010904//EN"
 "http://www.w3.org/TR/2001/REC-SVG-20010904/DTD/svg10.dtd">
<svg version="1.0" xmlns="http://www.w3.org/2000/svg"
 width="512.000000pt" height="512.000000pt" viewBox="0 0 512.000000 512.000000"
 preserveAspectRatio="xMidYMid meet">

<g transform="translate(0.000000,512.000000) scale(0.100000,-0.100000)"
fill="#000000" stroke="none">
<path d="M1340 4674 c-80 -21 -186 -76 -257 -133 -62 -51 -151 -170 -174 -235
l-12 -34 -156 -4 c-168 -4 -206 -14 -258 -70 -76 -81 -69 -221 14 -300 51 -49
89 -58 247 -58 l145 0 41 -78 c78 -151 214 -267 373 -318 101 -33 245 -37 346
-10 184 48 340 177 419 347 l27 59 1213 0 c1328 0 1250 -3 1316 58 81 76 88
220 13 300 -12 13 -40 34 -62 45 l-40 22 -1220 3 -1220 2 -39 78 c-49 96 -172
222 -261 269 -132 69 -320 93 -455 57z m208 -416 c66 -16 135 -87 151 -154 24
-98 -20 -193 -110 -238 -88 -43 -176 -30 -244 39 -69 68 -82 156 -39 244 28
56 79 98 136 111 47 11 54 11 106 -2z"/>
<path d="M2445 3190 c-197 -42 -359 -163 -446 -334 l-44 -86 -686 0 -686 0
-44 -23 c-24 -13 -57 -43 -74 -66 -27 -39 -30 -50 -30 -120 0 -68 3 -82 27
-117 15 -21 44 -50 65 -64 l37 -25 695 -3 696 -2 44 -86 c74 -146 200 -254
363 -311 63 -23 89 -27 198 -27 110 0 134 3 198 26 164 59 289 166 363 312
l44 86 696 2 695 3 37 25 c21 14 50 43 65 64 24 35 27 49 27 117 0 71 -3 81
-31 120 -18 24 -51 54 -75 66 l-42 23 -686 0 -686 0 -44 86 c-105 205 -305
332 -536 340 -55 2 -118 -1 -140 -6z m229 -450 c20 -14 49 -43 64 -64 24 -35
27 -49 27 -116 0 -67 -3 -81 -27 -116 -15 -21 -44 -50 -65 -64 -31 -21 -48
-25 -113 -25 -65 0 -82 4 -113 25 -81 55 -118 161 -88 253 14 41 72 104 115
123 50 23 155 14 200 -16z"/>
<path d="M1404 1701 c-142 -23 -290 -103 -383 -208 -28 -31 -69 -92 -91 -135
l-41 -78 -145 0 c-158 0 -196 -9 -247 -58 -83 -79 -90 -219 -14 -300 52 -56
90 -66 258 -70 l156 -4 12 -34 c23 -65 112 -184 174 -235 73 -59 178 -113 262
-134 136 -35 318 -11 450 58 89 47 212 173 261 269 l39 78 1220 2 1220 3 40
22 c77 41 115 105 115 193 0 84 -53 161 -132 194 -33 14 -176 16 -1251 16
l-1213 0 -22 53 c-50 119 -172 245 -297 306 -110 55 -259 79 -371 62z m185
-447 c132 -66 157 -229 51 -334 -105 -106 -268 -81 -334 51 -43 88 -30 176 39
244 68 69 156 83 244 39z"/>
</g>
</svg>
